<?xml version="1.0" encoding="utf-8" ?>
<svg baseProfile="tiny" height="100%" version="1.2" width="100%" xmlns="http://www.w3.org/2000/svg" xmlns:ev="http://www.w3.org/2001/xml-events" xmlns:xlink="http://www.w3.org/1999/xlink"><defs /><line stroke="blue" x1="541" x2="501" y1="421" y2="431" /><line stroke="blue" x1="541" x2="572" y1="421" y2="431" /><line stroke="blue" x1="541" x2="539" y1="421" y2="413" /><line stroke="blue" x1="556" x2="537" y1="469" y2="509" /><line stroke="blue" x1="556" x2="521" y1="469" y2="470" /><line stroke="blue" x1="556" x2="572" y1="469" y2="450" /><line stroke="blue" x1="557" x2="572" y1="442" y2="439" /><line stroke="blue" x1="501" x2="541" y1="431" y2="421" /><line stroke="blue" x1="501" x2="462" y1="431" y2="428" /><line stroke="blue" x1="501" x2="464" y1="431" y2="441" /><line stroke="blue" x1="537" x2="556" y1="509" y2="469" /><line stroke="blue" x1="537" x2="529" y1="509" y2="553" /><line stroke="blue" x1="537" x2="501" y1="509" y2="501" /><line stroke="blue" x1="521" x2="556" y1="470" y2="469" /><line stroke="blue" x1="567" x2="572" y1="500" y2="507" /><line stroke="blue" x1="563" x2="572" y1="539" y2="536" /><line stroke="blue" x1="462" x2="501" y1="428" y2="431" /><line stroke="blue" x1="462" x2="427" y1="428" y2="422" /><line stroke="blue" x1="462" x2="457" y1="428" y2="413" /><line stroke="blue" x1="464" x2="501" y1="441" y2="431" /><line stroke="blue" x1="464" x2="446" y1="441" y2="482" /><line stroke="blue" x1="464" x2="479" y1="441" y2="477" /><line stroke="blue" x1="529" x2="537" y1="553" y2="509" /><line stroke="blue" x1="529" x2="526" y1="553" y2="588" /><line stroke="blue" x1="501" x2="537" y1="501" y2="509" /><line stroke="blue" x1="446" x2="464" y1="482" y2="441" /><line stroke="blue" x1="446" x2="447" y1="482" y2="527" /><line stroke="blue" x1="446" x2="427" y1="482" y2="485" /><line stroke="blue" x1="479" x2="464" y1="477" y2="441" /><line stroke="blue" x1="447" x2="446" y1="527" y2="482" /><line stroke="blue" x1="447" x2="443" y1="527" y2="572" /><line stroke="blue" x1="447" x2="467" y1="527" y2="558" /><line stroke="blue" x1="443" x2="447" y1="572" y2="527" /><line stroke="blue" x1="443" x2="444" y1="572" y2="588" /><line stroke="blue" x1="443" x2="427" y1="572" y2="577" /><line stroke="blue" x1="467" x2="447" y1="558" y2="527" /><line stroke="blue" x1="572" x2="541" y1="431" y2="421" /><line stroke="blue" x1="572" x2="556" y1="450" y2="469" /><line stroke="blue" x1="572" x2="557" y1="439" y2="442" /><line stroke="blue" x1="539" x2="541" y1="413" y2="421" /><line stroke="blue" x1="572" x2="567" y1="507" y2="500" /><line stroke="blue" x1="572" x2="563" y1="536" y2="539" /><line stroke="blue" x1="427" x2="462" y1="422" y2="428" /><line stroke="blue" x1="457" x2="462" y1="413" y2="428" /><line stroke="blue" x1="526" x2="529" y1="588" y2="553" /><line stroke="blue" x1="427" x2="446" y1="485" y2="482" /><line stroke="blue" x1="444" x2="443" y1="588" y2="572" /><line stroke="blue" x1="427" x2="443" y1="577" y2="572" /><circle cx="521" cy="426" fill="green" r="2" stroke="green" /><circle cx="557" cy="426" fill="green" r="2" stroke="green" /><circle cx="521" cy="426" fill="green" r="2" stroke="green" /><circle cx="481" cy="430" fill="green" r="2" stroke="green" /><circle cx="482" cy="436" fill="green" r="2" stroke="green" /><circle cx="557" cy="426" fill="green" r="2" stroke="green" /><circle cx="547" cy="489" fill="green" r="2" stroke="green" /><circle cx="539" cy="469" fill="green" r="2" stroke="green" /><circle cx="547" cy="489" fill="green" r="2" stroke="green" /><circle cx="530" cy="548" fill="green" r="2" stroke="green" /><circle cx="519" cy="505" fill="green" r="2" stroke="green" /><circle cx="539" cy="469" fill="green" r="2" stroke="green" /><circle cx="481" cy="430" fill="green" r="2" stroke="green" /><circle cx="444" cy="425" fill="green" r="2" stroke="green" /><circle cx="482" cy="436" fill="green" r="2" stroke="green" /><circle cx="455" cy="461" fill="green" r="2" stroke="green" /><circle cx="471" cy="459" fill="green" r="2" stroke="green" /><circle cx="519" cy="505" fill="green" r="2" stroke="green" /><circle cx="444" cy="425" fill="green" r="2" stroke="green" /><circle cx="455" cy="461" fill="green" r="2" stroke="green" /><circle cx="447" cy="505" fill="green" r="2" stroke="green" /><circle cx="471" cy="459" fill="green" r="2" stroke="green" /><circle cx="447" cy="505" fill="green" r="2" stroke="green" /><circle cx="445" cy="549" fill="green" r="2" stroke="green" /><circle cx="457" cy="543" fill="green" r="2" stroke="green" /><circle cx="445" cy="549" fill="green" r="2" stroke="green" /><circle cx="457" cy="543" fill="green" r="2" stroke="green" /></svg>