<?xml version="1.0" encoding="utf-8" ?>
<svg baseProfile="tiny" height="100%" version="1.2" width="100%" xmlns="http://www.w3.org/2000/svg" xmlns:ev="http://www.w3.org/2001/xml-events" xmlns:xlink="http://www.w3.org/1999/xlink"><defs /><line stroke="blue" x1="432" x2="477" y1="452" y2="437" /><line stroke="blue" x1="563" x2="528" y1="474" y2="477" /><line stroke="blue" x1="493" x2="521" y1="531" y2="509" /><line stroke="blue" x1="561" x2="545" y1="531" y2="550" /><line stroke="blue" x1="441" x2="519" y1="557" y2="520" /><line stroke="blue" x1="566" x2="545" y1="587" y2="550" /><line stroke="blue" x1="533" x2="528" y1="415" y2="450" /><line stroke="blue" x1="533" x2="533" y1="415" y2="413" /><line stroke="blue" x1="533" x2="572" y1="415" y2="427" /><line stroke="blue" x1="483" x2="477" y1="427" y2="437" /><line stroke="blue" x1="483" x2="528" y1="427" y2="450" /><line stroke="blue" x1="483" x2="454" y1="427" y2="413" /><line stroke="blue" x1="477" x2="432" y1="437" y2="452" /><line stroke="blue" x1="477" x2="483" y1="437" y2="427" /><line stroke="blue" x1="477" x2="505" y1="437" y2="461" /><line stroke="blue" x1="477" x2="427" y1="437" y2="424" /><line stroke="blue" x1="528" x2="533" y1="450" y2="415" /><line stroke="blue" x1="528" x2="483" y1="450" y2="427" /><line stroke="blue" x1="528" x2="528" y1="450" y2="459" /><line stroke="blue" x1="505" x2="477" y1="461" y2="437" /><line stroke="blue" x1="505" x2="528" y1="461" y2="459" /><line stroke="blue" x1="505" x2="427" y1="461" y2="488" /><line stroke="blue" x1="528" x2="528" y1="459" y2="450" /><line stroke="blue" x1="528" x2="505" y1="459" y2="461" /><line stroke="blue" x1="528" x2="528" y1="459" y2="477" /><line stroke="blue" x1="528" x2="572" y1="459" y2="431" /><line stroke="blue" x1="528" x2="563" y1="477" y2="474" /><line stroke="blue" x1="528" x2="528" y1="477" y2="459" /><line stroke="blue" x1="528" x2="521" y1="477" y2="509" /><line stroke="blue" x1="521" x2="493" y1="509" y2="531" /><line stroke="blue" x1="521" x2="528" y1="509" y2="477" /><line stroke="blue" x1="521" x2="523" y1="509" y2="514" /><line stroke="blue" x1="523" x2="521" y1="514" y2="509" /><line stroke="blue" x1="523" x2="519" y1="514" y2="520" /><line stroke="blue" x1="523" x2="572" y1="514" y2="499" /><line stroke="blue" x1="519" x2="441" y1="520" y2="557" /><line stroke="blue" x1="519" x2="523" y1="520" y2="514" /><line stroke="blue" x1="519" x2="519" y1="520" y2="532" /><line stroke="blue" x1="519" x2="519" y1="532" y2="520" /><line stroke="blue" x1="519" x2="545" y1="532" y2="550" /><line stroke="blue" x1="519" x2="495" y1="532" y2="588" /><line stroke="blue" x1="545" x2="561" y1="550" y2="531" /><line stroke="blue" x1="545" x2="566" y1="550" y2="587" /><line stroke="blue" x1="545" x2="519" y1="550" y2="532" /><line stroke="blue" x1="495" x2="519" y1="588" y2="532" /><line stroke="blue" x1="533" x2="533" y1="413" y2="415" /><line stroke="blue" x1="454" x2="483" y1="413" y2="427" /><line stroke="blue" x1="572" x2="533" y1="427" y2="415" /><line stroke="blue" x1="427" x2="477" y1="424" y2="437" /><line stroke="blue" x1="572" x2="528" y1="431" y2="459" /><line stroke="blue" x1="427" x2="505" y1="488" y2="461" /><line stroke="blue" x1="572" x2="523" y1="499" y2="514" /><circle cx="454" cy="445" r="1" stroke="red" /><circle cx="454" cy="445" r="1" stroke="red" /><circle cx="491" cy="449" r="1" stroke="red" /><circle cx="452" cy="430" r="1" stroke="red" /><circle cx="545" cy="476" r="1" stroke="red" /><circle cx="545" cy="476" r="1" stroke="red" /><circle cx="507" cy="520" r="1" stroke="red" /><circle cx="507" cy="520" r="1" stroke="red" /><circle cx="556" cy="568" r="1" stroke="red" /><circle cx="480" cy="538" r="1" stroke="red" /><circle cx="480" cy="538" r="1" stroke="red" /><circle cx="556" cy="568" r="1" stroke="red" /><circle cx="553" cy="421" r="1" stroke="red" /><circle cx="505" cy="438" r="1" stroke="red" /><circle cx="553" cy="421" r="1" stroke="red" /><circle cx="505" cy="438" r="1" stroke="red" /><circle cx="468" cy="420" r="1" stroke="red" /><circle cx="468" cy="420" r="1" stroke="red" /><circle cx="491" cy="449" r="1" stroke="red" /><circle cx="466" cy="475" r="1" stroke="red" /><circle cx="452" cy="430" r="1" stroke="red" /><circle cx="550" cy="445" r="1" stroke="red" /><circle cx="466" cy="475" r="1" stroke="red" /><circle cx="550" cy="445" r="1" stroke="red" /><circle cx="547" cy="506" r="1" stroke="red" /><circle cx="547" cy="506" r="1" stroke="red" /><circle cx="507" cy="560" r="1" stroke="red" /><circle cx="507" cy="560" r="1" stroke="red" /></svg>